<svg xmlns="http://www.w3.org/2000/svg" width="199" height="199" viewBox="0 0 199 199" version="1.1">
	<path d="M 54.200 38.200 C 52.467 39.933, 52.467 159.067, 54.200 160.800 C 55.927 162.527, 143.073 162.527, 144.800 160.800 C 145.697 159.903, 146 148.422, 146 115.300 L 146 71 131.611 71 C 111.767 71, 112.599 71.809, 112.178 52.091 L 111.856 37 83.628 37 C 63.006 37, 55.077 37.323, 54.200 38.200 M 117 52.500 L 117 65 129.735 65 L 142.470 65 130 52.500 C 123.142 45.625, 117.411 40, 117.265 40 C 117.119 40, 117 45.625, 117 52.500 M 67.306 114.413 L 64.500 116.827 64.500 132.891 C 64.500 148.704, 64.539 148.993, 67 151.409 C 70.441 154.787, 75.594 155.531, 79.986 153.284 C 84.784 150.829, 85.968 147.861, 85.985 138.250 L 86 130 80.500 130 C 75.056 130, 75 130.030, 75 133 C 75 135.533, 75.389 136, 77.500 136 C 79.796 136, 80 136.367, 80 140.500 C 80 143.667, 79.407 145.593, 78 147 C 75.592 149.408, 75.083 149.447, 72.223 147.443 C 70.136 145.982, 70 145.154, 70 133.878 C 70 120.209, 70.713 118, 75.122 118 C 77.594 118, 78.389 118.569, 79.306 121 C 80.207 123.387, 81.033 124, 83.350 124 C 86.154 124, 86.240 123.861, 85.665 120.250 C 84.802 114.831, 81.142 112, 75 112 C 71.274 112, 69.444 112.574, 67.306 114.413 M 91 115 C 91 117.762, 91.278 118, 94.500 118 L 98 118 98 133 L 98 148 94.500 148 C 91.278 148, 91 148.238, 91 151 L 91 154 102 154 L 113 154 113 151 C 113 148.167, 112.778 148, 109 148 L 105 148 105 133 L 105 118 109 118 C 112.778 118, 113 117.833, 113 115 L 113 112 102 112 L 91 112 91 115 M 118 133 L 118 154 121.500 154 L 125 154 125 145 L 125 136 131.500 136 L 138 136 138 133 L 138 130 131.500 130 L 125 130 125 124 L 125 118 132.500 118 L 140 118 140 115 L 140 112 129 112 L 118 112 118 133" stroke="none" fill="black" fill-rule="evenodd"/>
</svg>