<svg xmlns="http://www.w3.org/2000/svg" width="156" height="156" viewBox="0 0 156 156" version="1.1">
	<path d="M 33.459 18.250 C 33.196 18.938, 33.098 46.275, 33.241 79 L 33.500 138.500 78 138.500 L 122.500 138.500 122.760 94.250 L 123.021 50 109.445 50 C 101.978 50, 95.045 49.559, 94.039 49.021 C 91.033 47.412, 90 42.382, 90 29.351 L 90 17 61.969 17 C 40.465 17, 33.826 17.291, 33.459 18.250 M 95 31.143 C 95 39.849, 95.349 43.044, 96.393 43.911 C 97.313 44.674, 101.569 44.971, 108.912 44.784 L 120.037 44.500 107.518 32.015 L 95 19.530 95 31.143 M 47.301 91.772 C 46.092 92.723, 44.630 94.767, 44.051 96.315 C 42.659 100.044, 42.701 121.843, 44.108 125.881 C 46.349 132.307, 55.638 134.082, 61.170 129.140 C 64.246 126.391, 64.388 125.924, 64.808 117.140 L 65.245 108 59.622 108 C 54.042 108, 54 108.022, 54 111 C 54 113.533, 54.389 114, 56.500 114 C 58.725 114, 59 114.415, 59 117.777 C 59 124.530, 54.345 128.203, 50.571 124.429 C 49.325 123.182, 49 120.479, 49 111.363 C 49 98.243, 49.743 96, 54.087 96 C 56.540 96, 57.300 96.561, 58.150 99 C 58.988 101.404, 59.772 102, 62.098 102 C 64.038 102, 65 101.492, 65 100.468 C 65 97.622, 62.183 92.168, 60.150 91.080 C 57.045 89.419, 49.800 89.809, 47.301 91.772 M 69 93 C 69 95.833, 69.222 96, 73 96 L 77 96 77 110.500 L 77 125 73 125 C 69.222 125, 69 125.167, 69 128 L 69 131 80 131 L 91 131 91 128 C 91 125.167, 90.778 125, 87 125 L 83 125 83 110.500 L 83 96 87 96 C 90.778 96, 91 95.833, 91 93 L 91 90 80 90 L 69 90 69 93 M 96 110.500 L 96 131 99.500 131 L 103 131 103 122.500 L 103 114 109.500 114 L 116 114 116 111 L 116 108 109.500 108 L 103 108 103 102.500 L 103 97 110.500 97 L 118 97 118 93.500 L 118 90 107 90 L 96 90 96 110.500" stroke="none" fill="black" fill-rule="evenodd"/>
</svg>